<svg width="25" height="33" viewBox="0 0 25 33" fill="none" xmlns="http://www.w3.org/2000/svg">
<path d="M23.4195 8.26586H18.8699V6.40022C18.8699 2.86566 16.0042 0 12.4697 0C8.93487 0 6.06922 2.86566 6.06922 6.40022V8.26586H1.14373C0.737125 8.26702 0.407404 8.59628 0.40625 9.00335V28.7494C0.407174 30.7854 2.05739 32.4356 4.09321 32.4363H20.4772C22.5132 32.4356 24.1634 30.7854 24.1639 28.7494V9.00335C24.1593 8.59489 23.8275 8.26656 23.4195 8.26586ZM7.53656 6.39283C7.53656 3.67264 9.74209 1.46712 12.462 1.46712C15.1827 1.46712 17.3878 3.67264 17.3878 6.39283V8.25848H7.53656V6.39283ZM22.682 28.7494C22.6783 29.9699 21.6901 30.9581 20.47 30.9616H4.08605C2.86553 30.9581 1.87729 29.9699 1.87383 28.7494V9.7406H6.06183V12.7416C6.06183 13.1489 6.39224 13.479 6.79908 13.479C7.20638 13.479 7.53656 13.1489 7.53656 12.7416V9.7406H17.3952V12.7416C17.3952 13.1489 17.7253 13.479 18.1326 13.479C18.5395 13.479 18.8699 13.1489 18.8699 12.7416V9.7406H22.682V28.7494Z" fill="#E5E5E5"/>
</svg>
