<svg width="20" height="20" viewBox="0 0 20 20" fill="none" xmlns="http://www.w3.org/2000/svg">
<path d="M19.8103 18.9363L14.6466 13.9688C15.9988 12.5325 16.8296 10.633 16.8296 8.54284C16.829 4.07156 13.0618 0.447388 8.41449 0.447388C3.76714 0.447388 0 4.07156 0 8.54284C0 13.0141 3.76714 16.6383 8.41449 16.6383C10.4225 16.6383 12.2641 15.9593 13.7108 14.8305L18.8945 19.8175C19.147 20.0608 19.5571 20.0608 19.8097 19.8175C20.0629 19.5743 20.0629 19.1795 19.8103 18.9363ZM8.41449 15.3928C4.48232 15.3928 1.29469 12.3259 1.29469 8.54284C1.29469 4.75972 4.48232 1.69292 8.41449 1.69292C12.3467 1.69292 15.5343 4.75972 15.5343 8.54284C15.5343 12.3259 12.3467 15.3928 8.41449 15.3928Z" fill="#E5E5E5"/>
</svg>
