<svg width="23" height="23" viewBox="0 0 23 23" fill="none" xmlns="http://www.w3.org/2000/svg">
<path d="M17.969 14.5087V14.5092H19.8427C20.58 14.5092 21.1687 13.9478 21.1685 13.2719V13.2718C21.1685 12.5965 20.5799 12.0362 19.8424 12.0362H18.2797C18.0228 12.0362 17.8142 11.828 17.8142 11.5707C17.8142 11.3134 18.0228 11.1052 18.2797 11.1052H19.8424C20.586 11.1052 21.1685 10.5756 21.1685 9.9512C21.1685 9.33064 20.5865 8.80355 19.8424 8.80355H13.3829C13.1877 8.80355 13.0136 8.68182 12.946 8.49891L12.9459 8.49858C12.8791 8.31579 12.9326 8.11097 13.0803 7.98433C13.1062 7.96076 13.8427 7.2727 13.7492 5.42719L13.7492 5.42697C13.6452 3.28106 12.395 2.20097 11.6913 1.90213C11.5866 1.85813 11.2531 1.74691 10.9668 1.95308C10.7936 2.07796 10.6587 2.30497 10.5781 2.63734C10.4977 2.96862 10.4739 3.39419 10.5141 3.89997L10.5141 3.89998C10.6133 5.14965 9.82405 6.37633 8.93518 7.34557C8.07281 8.2859 7.09622 9.00589 6.67129 9.3011V19.3798C7.23302 19.5832 8.50171 20.0318 9.86882 20.4436C11.2956 20.8733 12.8162 21.2587 13.7543 21.2899L17.585 21.3164C17.5851 21.3164 17.5852 21.3164 17.5854 21.3164C18.3181 21.3162 18.9056 20.7561 18.9056 20.0808C18.9056 19.4048 18.3205 18.8447 17.5874 18.842C17.5873 18.842 17.5872 18.842 17.5871 18.842M17.969 14.5087L17.5874 18.742L17.5871 18.842M17.969 14.5087L17.9616 14.5094M17.969 14.5087L17.9666 14.6094M17.5871 18.842L17.5825 18.842H17.5726L17.5726 18.8418M17.5871 18.842L17.5726 18.8418M17.5726 18.8418H17.5801V18.7665V18.7418L17.5702 18.8413L17.5726 18.8415L17.5726 18.8418ZM17.5726 18.8418H16.2389C15.9819 18.8418 15.7734 18.6332 15.7734 18.3762C15.7734 18.1192 15.9819 17.9107 16.2389 17.9107H17.5825H17.5875L17.5875 17.9108L17.5899 17.911M17.5726 18.8418L18.8485 18.011C19.6353 18.011 20.2755 17.412 20.2755 16.6758C20.2755 15.9397 19.6353 15.3405 18.8485 15.3405H17.5825C17.3808 15.3405 17.217 15.1767 17.217 14.9749C17.217 14.7732 17.3808 14.6094 17.5825 14.6094H17.9666M17.5899 17.911H17.5875H17.5874V17.9127V18.011L17.5924 17.9111L17.5899 17.911ZM17.5899 17.911H18.8485C19.5865 17.911 20.1755 17.3506 20.1755 16.6758C20.1755 16.001 19.5864 15.4405 18.8485 15.4405H17.5825C17.3255 15.4405 17.117 15.2319 17.117 14.9749C17.117 14.7179 17.3255 14.5094 17.5825 14.5094H17.9616M17.9616 14.5094L17.9591 14.5097L17.9566 14.5099L17.9666 14.6094M17.9616 14.5094H17.9666V14.5848V14.6094M12.0547 1.04469L12.0547 1.04468C11.498 0.808511 10.8867 0.862887 10.4224 1.1977C9.95047 1.53806 9.45292 2.29831 9.5861 3.97357C9.65076 4.79011 9.16189 5.6581 8.50264 6.43454C7.91007 7.13243 7.19466 7.73917 6.67129 8.14342V7.69178C6.67129 7.43454 6.46301 7.22626 6.20577 7.22626H1.36552C1.10828 7.22626 0.9 7.43454 0.9 7.69178V20.8949C0.9 21.1519 1.10824 21.3605 1.36552 21.3605H6.20577C6.46306 21.3605 6.67129 21.1519 6.67129 20.8949V20.37C7.3888 20.6261 8.62719 21.0532 9.92526 21.4327C11.3049 21.836 12.7632 22.1891 13.7347 22.2208L13.7347 22.2209L13.7373 22.2209L17.5818 22.2477H17.5825C18.8218 22.2477 19.8369 21.2796 19.8369 20.081C19.8369 19.5914 19.6664 19.141 19.3821 18.7785C20.3675 18.5485 21.1068 17.6973 21.1068 16.6761C21.1068 16.1585 20.9153 15.6846 20.5997 15.3127C21.4706 15.0138 22.1 14.215 22.1 13.2718V13.2718C22.0998 12.5858 21.7657 11.9756 21.2487 11.5794C21.7646 11.1986 22.0998 10.612 22.0998 9.95095C22.0998 8.79656 21.079 7.87226 19.8427 7.87226H14.2575C14.5104 7.33996 14.7371 6.52987 14.679 5.38073C14.5534 2.79061 12.9801 1.43742 12.0547 1.04469ZM1.83105 20.4292V8.15706H5.74025V9.03442C5.73974 9.0469 5.74004 9.0587 5.74025 9.06717V19.6974C5.74023 19.698 5.74021 19.6987 5.74018 19.6995C5.73996 19.7067 5.73958 19.7191 5.74025 19.7317V20.4294L1.83105 20.4292Z" fill="#9A9A9A" stroke="#9A9A9A" stroke-width="0.2"/>
</svg>
