<svg width="66" height="48" viewBox="0 0 66 48" fill="none" xmlns="http://www.w3.org/2000/svg">
<path d="M23.8946 -3.05176e-05L28.0771 7.80745C17.8159 11.3766 15.0647 18.7751 14.9717 22.0282C24.7284 24.0359 27.3876 29.8879 27.5195 33.4606C28.0771 48.57 16.18 48.7038 10.7892 47.1237C6.04891 45.4506 -2.59509 38.7028 0.750977 25.0954C4.09704 11.4881 17.5742 2.69541 23.8946 -3.05176e-05Z" fill="#E5E5E5"/>
<path d="M61.8155 -3.05176e-05L65.998 7.80745C55.7368 11.3766 52.9856 18.7751 52.8926 22.0282C62.6493 24.0359 65.3085 29.8879 65.4404 33.4606C65.998 48.57 54.1009 48.7038 48.7101 47.1237C43.9698 45.4506 35.3258 38.7028 38.6719 25.0954C42.0179 11.4881 55.4951 2.69541 61.8155 -3.05176e-05Z" fill="#E5E5E5"/>
</svg>
