<svg width="105" height="68" viewBox="0 0 105 68" fill="none" xmlns="http://www.w3.org/2000/svg">
<path d="M103.196 33.338H94.3253V18.3684C94.3253 17.4207 93.5571 16.6536 92.6105 16.6536H64.8286V1.71486C64.8286 0.767114 64.0603 0 63.1137 0H1.71486C0.767114 0 0 0.767114 0 1.71486V57.9452C0 58.8918 0.767114 59.66 1.71486 59.66H16.0488C16.6433 64.0809 20.4297 67.5038 25.0095 67.5038C29.5893 67.5038 33.3758 64.0809 33.9702 59.66H63.1137H74.1872C74.7816 64.0809 78.5703 67.5038 83.1547 67.5038C87.7391 67.5038 91.5278 64.0809 92.1235 59.66H103.197C104.143 59.66 104.912 58.8918 104.912 57.9452V35.0529C104.911 34.1052 104.142 33.338 103.196 33.338ZM25.0095 64.0741C21.9102 64.0741 19.3882 61.5509 19.3882 58.4493C19.3882 55.3477 21.9102 52.8246 25.0095 52.8246C28.1089 52.8246 30.6308 55.3477 30.6308 58.4493C30.6308 61.5509 28.11 64.0741 25.0095 64.0741ZM25.0095 49.3949C20.7853 49.3949 17.2389 52.309 16.2454 56.2303H3.42972V3.42972H61.3989V18.3684V35.0529V56.2292H33.7748C32.7813 52.309 29.2338 49.3949 25.0095 49.3949ZM83.1547 64.0741C80.0508 64.0741 77.5266 61.5509 77.5266 58.4493C77.5266 55.3477 80.0508 52.8246 83.1547 52.8246C86.2586 52.8246 88.7841 55.3477 88.7841 58.4493C88.7841 61.5509 86.2575 64.0741 83.1547 64.0741ZM101.481 56.2292H91.9268C90.9322 52.3078 87.3824 49.3937 83.1547 49.3937C78.927 49.3937 75.3773 52.3078 74.3838 56.2292H64.8297V35.0529V20.0833H90.8968V35.0529C90.8968 35.9995 91.665 36.7678 92.6116 36.7678H101.482V56.2292H101.481Z" fill="#D79468"/>
</svg>
