<svg width="19" height="18" viewBox="0 0 19 18" fill="none" xmlns="http://www.w3.org/2000/svg">
<path d="M12.9004 0H6.15039C3.04427 0 0.525391 2.51888 0.525391 5.625V12.375C0.525391 15.4811 3.04427 18 6.15039 18H12.9004C16.0065 18 18.5254 15.4811 18.5254 12.375V5.625C18.5254 2.51888 16.0065 0 12.9004 0ZM16.8379 12.375C16.8379 14.5463 15.0716 16.3125 12.9004 16.3125H6.15039C3.97914 16.3125 2.21289 14.5463 2.21289 12.375V5.625C2.21289 3.45375 3.97914 1.6875 6.15039 1.6875H12.9004C15.0716 1.6875 16.8379 3.45375 16.8379 5.625V12.375Z" fill="#E5E5E5"/>
<path d="M9.52539 4.50024C7.04027 4.50024 5.02539 6.51512 5.02539 9.00024C5.02539 11.4854 7.04027 13.5002 9.52539 13.5002C12.0105 13.5002 14.0254 11.4854 14.0254 9.00024C14.0254 6.51512 12.0105 4.50024 9.52539 4.50024ZM9.52539 11.8127C7.97514 11.8127 6.71289 10.5505 6.71289 9.00024C6.71289 7.44887 7.97514 6.18774 9.52539 6.18774C11.0756 6.18774 12.3379 7.44887 12.3379 9.00024C12.3379 10.5505 11.0756 11.8127 9.52539 11.8127Z" fill="#E5E5E5"/>
<path d="M14.3629 4.76224C14.694 4.76224 14.9625 4.49378 14.9625 4.16261C14.9625 3.83145 14.694 3.56299 14.3629 3.56299C14.0317 3.56299 13.7632 3.83145 13.7632 4.16261C13.7632 4.49378 14.0317 4.76224 14.3629 4.76224Z" fill="#E5E5E5"/>
</svg>
