<svg width="18" height="10" viewBox="0 0 18 10" fill="none" xmlns="http://www.w3.org/2000/svg">
<path d="M17.3699 8.91937C17.3228 8.8405 17.0314 8.20732 15.6292 6.90591C14.1613 5.54315 14.3585 5.76443 16.1266 3.40809C17.2034 1.97303 17.6339 1.09665 17.4992 0.722004C17.371 0.364883 16.579 0.459093 16.579 0.459093L13.9455 0.474429C13.9455 0.474429 13.7505 0.448138 13.6048 0.53468C13.4635 0.620126 13.3726 0.81731 13.3726 0.81731C13.3726 0.81731 12.9552 1.92811 12.3987 2.8724C11.2255 4.86505 10.7555 4.97022 10.5638 4.84643C10.118 4.55832 10.2297 3.68743 10.2297 3.06959C10.2297 1.13828 10.5222 0.333114 9.65896 0.124976C9.37195 0.0559615 9.16162 0.00995199 8.42875 0.00228373C7.48884 -0.00757546 6.69244 0.00557012 6.24221 0.225759C5.94205 0.372551 5.71091 0.700095 5.85222 0.718718C6.0264 0.741723 6.42077 0.824978 6.63 1.1098C6.90058 1.47678 6.89072 2.30276 6.89072 2.30276C6.89072 2.30276 7.04628 4.57585 6.52812 4.85848C6.1721 5.05238 5.68461 4.65692 4.63844 2.8483C4.10276 1.92263 3.69744 0.898375 3.69744 0.898375C3.69744 0.898375 3.61966 0.707763 3.48054 0.605885C3.31184 0.482098 3.07522 0.442661 3.07522 0.442661L0.570982 0.457997C0.570982 0.457997 0.195237 0.468952 0.0572088 0.632177C-0.0654834 0.777873 0.0473496 1.07803 0.0473496 1.07803C0.0473496 1.07803 2.00823 5.66474 4.22765 7.97727C6.26412 10.097 8.57555 9.95787 8.57555 9.95787H9.62281C9.62281 9.95787 9.9394 9.92282 10.1004 9.74864C10.2494 9.5887 10.2439 9.28854 10.2439 9.28854C10.2439 9.28854 10.2231 7.88306 10.876 7.67602C11.5191 7.47226 12.345 9.03439 13.2203 9.6358C13.882 10.0904 14.3848 9.99074 14.3848 9.99074L16.7258 9.95787C16.7258 9.95787 17.9505 9.88228 17.3699 8.91937Z" fill="#E5E5E5"/>
</svg>
