<svg width="23" height="20" viewBox="0 0 23 20" fill="none" xmlns="http://www.w3.org/2000/svg">
<path d="M22.7309 2.36769C21.8906 2.76923 20.9951 3.03538 20.0615 3.16462C21.022 2.54 21.755 1.55846 22.0996 0.375385C21.2042 0.956923 20.2155 1.36769 19.1618 1.59692C18.3116 0.610769 17.0998 0 15.7778 0C13.2129 0 11.148 2.26769 11.148 5.04769C11.148 5.44769 11.1791 5.83231 11.2553 6.19846C7.40376 5.99385 3.99568 3.98308 1.70621 0.92C1.3065 1.67538 1.07205 2.54 1.07205 3.47077C1.07205 5.21846 1.89829 6.76769 3.12989 7.66462C2.38556 7.64923 1.65536 7.41385 1.03674 7.04308C1.03674 7.05846 1.03674 7.07846 1.03674 7.09846C1.03674 9.55077 2.64262 11.5877 4.74848 12.0569C4.37137 12.1692 3.96037 12.2231 3.53383 12.2231C3.23723 12.2231 2.93781 12.2046 2.65674 12.1369C3.257 14.1354 4.96034 15.6046 6.9857 15.6523C5.40948 16.9954 3.40813 17.8046 1.24153 17.8046C0.861602 17.8046 0.497207 17.7862 0.132812 17.7354C2.18501 19.1769 4.61713 20 7.23992 20C15.7651 20 20.4259 12.3077 20.4259 5.64C20.4259 5.41692 20.4189 5.20154 20.409 4.98769C21.3284 4.27692 22.101 3.38923 22.7309 2.36769Z" fill="#303030"/>
</svg>
