<svg width="37" height="22" viewBox="0 0 37 22" fill="none" xmlns="http://www.w3.org/2000/svg">
<path d="M35.8978 18.935C35.8005 18.7722 35.1983 17.4646 32.3004 14.777C29.2667 11.9628 29.6742 12.4198 33.3282 7.55367C35.5537 4.59013 36.4434 2.78033 36.165 2.00664C35.9001 1.26915 34.2632 1.4637 34.2632 1.4637L28.8207 1.49537C28.8207 1.49537 28.4177 1.44108 28.1166 1.61979C27.8246 1.79625 27.6366 2.20345 27.6366 2.20345C27.6366 2.20345 26.7741 4.49737 25.624 6.44743C23.1993 10.5625 22.228 10.7796 21.8319 10.524C20.9104 9.92903 21.1413 8.13055 21.1413 6.85464C21.1413 2.86629 21.7458 1.20354 19.9618 0.773713C19.3687 0.631191 18.934 0.536177 17.4194 0.520341C15.4769 0.499981 13.831 0.527128 12.9005 0.98184C12.2802 1.28498 11.8025 1.96139 12.0946 1.99985C12.4545 2.04736 13.2696 2.21929 13.702 2.80748C14.2612 3.56533 14.2408 5.27106 14.2408 5.27106C14.2408 5.27106 14.5623 9.96523 13.4914 10.5489C12.7556 10.9493 11.7482 10.1326 9.5861 6.39766C8.47903 4.48606 7.64136 2.37086 7.64136 2.37086C7.64136 2.37086 7.48062 1.97723 7.1931 1.76684C6.84445 1.51121 6.35544 1.42977 6.35544 1.42977L1.18003 1.46144C1.18003 1.46144 0.40349 1.48406 0.118231 1.82113C-0.135332 2.12201 0.0978556 2.74187 0.0978556 2.74187C0.0978556 2.74187 4.15034 12.2139 8.73712 16.9895C12.9458 21.367 17.7228 21.0797 17.7228 21.0797H19.8871C19.8871 21.0797 20.5414 21.0073 20.8742 20.6476C21.1821 20.3173 21.1708 19.6974 21.1708 19.6974C21.1708 19.6974 21.1278 16.795 22.4771 16.3674C23.806 15.9466 25.5131 19.1726 27.322 20.4146C28.6894 21.3534 29.7285 21.1475 29.7285 21.1475L34.5666 21.0797C34.5666 21.0797 37.0977 20.9236 35.8978 18.935Z" fill="#9A9A9A"/>
</svg>
