<?xml version="1.0" encoding="utf-8"?><svg viewBox="0 0 112 80" xmlns="http://www.w3.org/2000/svg" xmlns:xlink="http://www.w3.org/1999/xlink"><style>:root>svg{display:none}:root>svg:target{display:block}</style><svg viewBox="0 0 12 23" id="blog-one-fb" xmlns="http://www.w3.org/2000/svg"><path d="M7.469 7.861V5.002c0-.788.588-1.429 1.312-1.429h1.312V0H7.47C5.295 0 3.532 1.92 3.532 4.288V7.86H.909v3.573h2.625V22.87h3.936V11.434h2.624l1.312-3.573H7.47z"/></svg><svg viewBox="0 0 26 25" id="blog-one-instagram" xmlns="http://www.w3.org/2000/svg"><path d="M17.744 0H8.42C4.131 0 .652 3.476.652 7.763v9.315c0 4.287 3.48 7.763 7.77 7.763h9.322c4.29 0 7.768-3.476 7.768-7.763V7.763C25.512 3.476 22.033 0 17.744 0zm5.438 17.078a5.442 5.442 0 01-5.438 5.434H8.42a5.442 5.442 0 01-5.438-5.434V7.763a5.442 5.442 0 015.438-5.434h9.323a5.442 5.442 0 015.438 5.434v9.315z"/><path d="M13.082 6.21a6.213 6.213 0 00-6.215 6.211c0 3.43 2.783 6.21 6.215 6.21a6.213 6.213 0 006.215-6.21c0-3.43-2.783-6.21-6.215-6.21zm0 10.092a3.888 3.888 0 01-3.884-3.881 3.887 3.887 0 013.884-3.881 3.887 3.887 0 013.884 3.881 3.888 3.888 0 01-3.884 3.881zM19.765 6.574a.828.828 0 100-1.657.828.828 0 000 1.657z"/></svg><svg viewBox="0 0 28 24" id="blog-one-telegram" xmlns="http://www.w3.org/2000/svg"><path d="M11.142 16.114l-.458 6.45c.656 0 .94-.282 1.282-.62l3.078-2.94 6.379 4.668c1.17.652 1.994.308 2.31-1.075L27.92 2.99h.001c.371-1.73-.625-2.405-1.765-1.98L1.544 10.425c-1.68.651-1.654 1.587-.286 2.011l6.293 1.956 14.615-9.139c.688-.455 1.314-.203.8.252L11.141 16.114z"/></svg><svg viewBox="0 0 22 19" id="blog-one-twitter" xmlns="http://www.w3.org/2000/svg"><path d="M21.4 2.2c-.78.373-1.612.62-2.48.74A4.613 4.613 0 0020.815.349c-.832.54-1.75.922-2.73 1.135C17.295.567 16.17 0 14.942 0c-2.383 0-4.301 2.107-4.301 4.69 0 .371.029.728.1 1.069C7.16 5.569 3.994 3.7 1.867.855a5.046 5.046 0 00-.59 2.37c0 1.623.768 3.062 1.913 3.896a3.987 3.987 0 01-1.945-.578v.052c0 2.278 1.492 4.17 3.448 4.606-.35.105-.732.155-1.128.155-.276 0-.554-.018-.815-.08.558 1.856 2.14 3.221 4.022 3.265-1.465 1.248-3.324 2-5.337 2-.353 0-.691-.017-1.03-.064A11.408 11.408 0 007.01 18.58c7.92 0 12.25-7.147 12.25-13.341 0-.208-.006-.408-.015-.606A9.05 9.05 0 0021.4 2.2z"/></svg><svg viewBox="0 0 31 19" id="blog-one-vk" xmlns="http://www.w3.org/2000/svg"><path d="M30.633 16.267c-.083-.14-.597-1.255-3.07-3.548-2.589-2.402-2.24-2.012.877-6.164 1.9-2.53 2.659-4.074 2.421-4.734-.226-.63-1.623-.463-1.623-.463l-4.644.027s-.344-.046-.601.106c-.25.15-.41.498-.41.498s-.736 1.958-1.717 3.622c-2.07 3.511-2.898 3.697-3.236 3.478-.786-.507-.59-2.042-.59-3.13 0-3.404.517-4.823-1.006-5.19-.506-.122-.877-.203-2.17-.216-1.657-.018-3.062.006-3.856.394-.529.258-.936.836-.687.868.307.04 1.002.188 1.371.69.478.646.46 2.102.46 2.102s.275 4.006-.64 4.504c-.627.341-1.487-.356-3.332-3.543-.945-1.631-1.66-3.436-1.66-3.436s-.136-.336-.382-.515c-.297-.219-.715-.288-.715-.288l-4.416.027s-.663.02-.906.307c-.216.257-.017.786-.017.786s3.458 8.082 7.372 12.158c3.591 3.735 7.667 3.49 7.667 3.49h1.847s.559-.062.843-.369c.263-.282.253-.81.253-.81s-.037-2.477 1.115-2.842c1.134-.36 2.59 2.393 4.134 3.453 1.167.802 2.053.626 2.053.626l4.129-.058s2.16-.133 1.136-1.83z"/></svg><svg fill="none" viewBox="0 0 29 29" id="catalog-search-icon" xmlns="http://www.w3.org/2000/svg"><path d="M28.725 27.422l-7.488-7.367c1.961-2.13 3.166-4.948 3.166-8.048C24.402 5.375 18.94 0 12.2 0S0 5.375 0 12.007s5.462 12.007 12.201 12.007a12.27 12.27 0 007.68-2.681l7.516 7.396c.366.361.96.361 1.327 0a.914.914 0 000-1.307zM12.2 22.167c-5.702 0-10.324-4.549-10.324-10.16S6.5 1.847 12.201 1.847s10.324 4.549 10.324 10.16-4.622 10.16-10.324 10.16z" fill="#fff"/></svg><svg viewBox="0 0 13 27" id="contacts-facebook" xmlns="http://www.w3.org/2000/svg"><path d="M7.909 9.212v-3.35c0-.924.689-1.675 1.538-1.675h1.537V0H7.91C5.361 0 3.296 2.25 3.296 5.025v4.187H.221V13.4h3.075v13.4h4.613v-13.4h3.075l1.538-4.187H7.909z"/></svg><svg viewBox="0 0 26 23" id="contacts-twitter" xmlns="http://www.w3.org/2000/svg"><path d="M25.124 2.921a9.851 9.851 0 01-2.906.868c1.046-.68 1.844-1.749 2.219-3.037a9.595 9.595 0 01-3.199 1.33C20.313 1.01 18.994.344 17.554.344c-2.792 0-5.04 2.469-5.04 5.495 0 .436.034.854.117 1.253C8.437 6.869 4.727 4.68 2.234 1.345a5.913 5.913 0 00-.69 2.777c0 1.903.9 3.59 2.24 4.566a4.673 4.673 0 01-2.278-.676v.06c0 2.67 1.748 4.887 4.04 5.398-.41.122-.857.181-1.322.181-.323 0-.649-.02-.955-.094.654 2.176 2.508 3.775 4.713 3.827-1.716 1.463-3.895 2.344-6.253 2.344-.414 0-.81-.02-1.208-.076 2.235 1.57 4.883 2.466 7.738 2.466 9.281 0 14.356-8.375 14.356-15.634 0-.243-.008-.477-.019-.71 1.001-.774 1.842-1.74 2.528-2.853z"/></svg><svg viewBox="0 0 37 22" id="contacts-vk" xmlns="http://www.w3.org/2000/svg"><path d="M35.898 18.935c-.098-.163-.7-1.47-3.598-4.158-3.033-2.814-2.626-2.357 1.028-7.223 2.226-2.964 3.115-4.774 2.837-5.547-.265-.738-1.902-.543-1.902-.543l-5.442.031s-.403-.054-.704.125c-.292.176-.48.583-.48.583s-.863 2.294-2.013 4.244c-2.425 4.115-3.396 4.333-3.792 4.077-.922-.595-.69-2.393-.69-3.67 0-3.988.604-5.65-1.18-6.08C19.369.63 18.934.536 17.419.52 15.477.5 13.831.527 12.9.982c-.62.303-1.098.98-.805 1.018.36.047 1.175.22 1.607.807.56.758.539 2.464.539 2.464s.321 4.694-.75 5.278c-.735.4-1.743-.416-3.905-4.151C8.48 4.486 7.641 2.37 7.641 2.37s-.16-.394-.448-.604c-.349-.256-.838-.337-.838-.337L1.18 1.46s-.777.023-1.062.36c-.253.301-.02.92-.02.92s4.052 9.473 8.64 14.248c4.208 4.378 8.985 4.09 8.985 4.09h2.164s.654-.072.987-.431c.308-.33.297-.95.297-.95s-.043-2.903 1.306-3.33c1.329-.421 3.036 2.805 4.845 4.047 1.367.938 2.407.733 2.407.733l4.838-.068s2.53-.156 1.33-2.145z"/></svg><svg viewBox="0 0 23 23" id="dislike" xmlns="http://www.w3.org/2000/svg"><path d="M5.031 8.639H3.157c-.737 0-1.326.56-1.325 1.237 0 .675.588 1.236 1.326 1.236H4.72a.465.465 0 110 .93H3.158c-.744 0-1.326.53-1.326 1.155 0 .62.581 1.147 1.326 1.147h6.46a.466.466 0 01.303.82c-.027.023-.764.711-.67 2.557.104 2.146 1.354 3.226 2.058 3.525.104.044.438.155.724-.051.173-.125.308-.352.389-.685.08-.33.104-.757.064-1.262-.1-1.25.69-2.477 1.579-3.446.862-.94 1.839-1.66 2.264-1.955V3.767a64.658 64.658 0 00-3.198-1.063c-1.427-.43-2.947-.815-3.885-.846L5.415 1.83c-.733 0-1.32.56-1.32 1.236 0 .676.585 1.236 1.318 1.239M5.03 8.639l.382-4.233v-.1M5.03 8.639h.007m-.007 0l.002-.1m.38-4.233h.014m-.014 0h.014m0 0H5.42v.1l.01-.1h-.003zm0 0h1.334a.466.466 0 010 .931H5.41m.017-.931l-1.275.83c-.787 0-1.427.6-1.427 1.336 0 .736.64 1.335 1.427 1.335h1.265a.366.366 0 010 .731h-.384m.377-3.301h.002v-.1l-.004.1h.002zm0 0H4.152c-.738 0-1.327.56-1.327 1.235s.589 1.235 1.327 1.235h1.265a.466.466 0 010 .931h-.379m0 0h.005l-.01-.1m.005.1h-.005v-.1m5.912 13.565c.557.236 1.168.182 1.633-.153.472-.34.97-1.1.836-2.776-.065-.816.424-1.684 1.083-2.46.593-.699 1.308-1.305 1.832-1.71v.452c0 .257.208.465.465.465h4.84a.465.465 0 00.466-.465V2.253a.465.465 0 00-.466-.466h-4.84a.465.465 0 00-.465.466v.525a61.014 61.014 0 00-3.254-1.063c-1.38-.403-2.838-.756-3.81-.788h-.002L5.418.9c-1.24 0-2.255.968-2.255 2.167 0 .49.17.94.455 1.302-.985.23-1.725 1.081-1.725 2.103 0 .517.192.991.507 1.363-.87.299-1.5 1.098-1.5 2.04 0 .687.334 1.297.851 1.693-.516.381-.85.968-.85 1.629 0 1.154 1.02 2.078 2.256 2.078h5.585c-.252.533-.48 1.343-.421 2.492.126 2.59 1.699 3.943 2.624 4.336zM21.17 2.719V14.99h-3.91v-.878V3.451v-.003-.73h3.91z"/></svg><svg viewBox="0 0 19 18" id="footer-instagram" xmlns="http://www.w3.org/2000/svg"><path d="M12.9 0H6.15A5.626 5.626 0 00.525 5.625v6.75A5.626 5.626 0 006.15 18h6.75a5.626 5.626 0 005.625-5.625v-6.75A5.626 5.626 0 0012.9 0zm3.938 12.375a3.942 3.942 0 01-3.938 3.938H6.15a3.942 3.942 0 01-3.937-3.938v-6.75A3.942 3.942 0 016.15 1.687h6.75a3.942 3.942 0 013.938 3.938v6.75z"/><path d="M9.525 4.5a4.5 4.5 0 100 9 4.5 4.5 0 000-9zm0 7.313A2.816 2.816 0 016.713 9a2.816 2.816 0 012.812-2.812A2.816 2.816 0 0112.338 9a2.816 2.816 0 01-2.813 2.813zM14.363 4.762a.6.6 0 100-1.199.6.6 0 000 1.2z"/></svg><svg viewBox="0 0 18 15" id="footer-telegram" xmlns="http://www.w3.org/2000/svg"><path d="M7.063 9.886l-.298 4.188c.426 0 .61-.183.832-.403l1.997-1.908 4.139 3.03c.759.423 1.293.2 1.498-.698l2.717-12.729C18.19.242 17.543-.196 16.803.08L.836 6.193C-.254 6.616-.238 7.223.65 7.5l4.083 1.27 9.482-5.934c.446-.295.852-.132.518.164l-7.67 6.887z"/></svg><svg viewBox="0 0 18 10" id="footer-vk" xmlns="http://www.w3.org/2000/svg"><path d="M17.37 8.92c-.047-.08-.339-.713-1.74-2.014-1.469-1.363-1.272-1.142.497-3.498 1.076-1.435 1.507-2.311 1.372-2.686-.128-.357-.92-.263-.92-.263l-2.634.015s-.194-.026-.34.06c-.142.086-.232.283-.232.283s-.418 1.111-.974 2.055c-1.173 1.993-1.643 2.098-1.835 1.974-.446-.288-.334-1.159-.334-1.776 0-1.932.292-2.737-.571-2.945C9.372.056 9.162.01 8.429.002c-.94-.01-1.737.004-2.187.224-.3.147-.531.474-.39.493.174.023.569.106.778.39.27.368.26 1.194.26 1.194s.156 2.273-.362 2.555c-.356.194-.843-.201-1.89-2.01-.535-.925-.94-1.95-.94-1.95S3.62.708 3.48.606C3.31.482 3.075.443 3.075.443L.571.458S.195.469.057.632c-.122.146-.01.446-.01.446s1.961 4.587 4.18 6.9c2.037 2.119 4.349 1.98 4.349 1.98h1.047s.316-.035.477-.21c.15-.16.144-.46.144-.46s-.02-1.405.632-1.612c.643-.204 1.469 1.358 2.344 1.96.662.454 1.165.355 1.165.355l2.34-.033s1.226-.076.645-1.039z"/></svg><svg viewBox="0 0 16 15" id="grid-btn" xmlns="http://www.w3.org/2000/svg"><path d="M.635 11.04h3.553v3.553H.635zM.635 5.52h3.553v3.553H.635zM.635 0h3.553v3.553H.635zM6.155 11.04h3.553v3.553H6.155zM6.155 5.52h3.553v3.553H6.155zM6.155 0h3.553v3.553H6.155zM11.675 11.04h3.553v3.553h-3.553zM11.675 5.52h3.553v3.553h-3.553zM11.675 0h3.553v3.553h-3.553z"/></svg><svg viewBox="0 0 25 33" id="header-basket" xmlns="http://www.w3.org/2000/svg"><path d="M23.42 8.266h-4.55V6.4a6.4 6.4 0 00-12.8 0v1.866H1.143a.74.74 0 00-.738.737V28.75a3.688 3.688 0 003.687 3.687h16.384a3.688 3.688 0 003.687-3.687V9.003a.746.746 0 00-.745-.737zM7.537 6.393a4.926 4.926 0 019.85 0v1.865h-9.85V6.393zm15.145 22.356a2.219 2.219 0 01-2.212 2.213H4.086a2.218 2.218 0 01-2.212-2.213V9.741h4.188v3a.738.738 0 001.475 0v-3h9.858v3a.737.737 0 101.475 0v-3h3.812v19.008z"/></svg><svg viewBox="0 0 27 33" id="header-user" xmlns="http://www.w3.org/2000/svg"><path d="M13.02 14.198A7.1 7.1 0 105.921 7.1a7.107 7.107 0 007.1 7.1zm0-12.694a5.595 5.595 0 11-5.595 5.595 5.602 5.602 0 015.595-5.595zM13.204 15.721C5.91 15.72-.003 21.632 0 28.926v3.03c0 .415.337.752.752.752h24.904a.752.752 0 00.752-.752v-3.03c.004-7.294-5.91-13.207-13.204-13.205zm11.7 15.483h-23.4v-2.278a11.7 11.7 0 1123.4 0v2.278z"/></svg><svg fill="none" viewBox="0 0 58 58" id="icon-mini" xmlns="http://www.w3.org/2000/svg"><rect x="1.45" y="1.45" width="55.1" height="55.1" rx="9.425" stroke="#fff" stroke-width="2.9"/><circle cx="29" cy="29" r="13.05" stroke="#fff" stroke-width="2.9"/><circle cx="47.125" cy="10.875" r="2.175" fill="#fff"/></svg><svg fill="none" viewBox="0 0 80 80" id="icon-title" xmlns="http://www.w3.org/2000/svg"><rect x="2" y="2" width="76" height="76" rx="13" stroke="#D79468" stroke-width="4"/><circle cx="40" cy="40" r="18" stroke="#D79468" stroke-width="4"/><circle cx="65" cy="15" r="3" fill="#D79468"/></svg><svg viewBox="0 0 23 23" id="like" xmlns="http://www.w3.org/2000/svg"><path d="M17.969 14.509h1.874c.737 0 1.326-.561 1.326-1.237 0-.675-.59-1.236-1.327-1.236H18.28a.465.465 0 110-.93h1.562c.744 0 1.327-.53 1.327-1.155 0-.62-.582-1.147-1.327-1.147h-6.46a.466.466 0 01-.303-.82c.027-.023.764-.711.67-2.557-.104-2.146-1.354-3.226-2.058-3.525-.104-.044-.438-.155-.724.051-.173.125-.308.352-.389.684-.08.332-.104.757-.064 1.263.1 1.25-.69 2.476-1.579 3.446-.862.94-1.839 1.66-2.264 1.955V19.38c.562.203 1.83.652 3.198 1.064 1.427.43 2.947.815 3.885.846l3.831.026c.733 0 1.32-.56 1.32-1.235 0-.676-.585-1.236-1.318-1.239m.382-4.333l-.382 4.233v.1m.382-4.333h-.007m.007 0l-.002.1m-.38 4.233h-.015m.015 0h-.014m0 0h.007v-.1l-.01.1h.003zm0 0h-1.334a.466.466 0 010-.931H17.59m-.017.93l1.276-.83c.786 0 1.427-.599 1.427-1.335s-.64-1.335-1.427-1.335h-1.267a.366.366 0 010-.732h.385m-.377 3.302h-.003v.1l.005-.1h-.002zm0 0h1.259c.738 0 1.326-.56 1.326-1.235s-.589-1.235-1.326-1.235h-1.267a.466.466 0 010-.932h.38m0 0h-.005l.01.1m-.005-.1h.005v.1M12.055 1.045c-.557-.236-1.168-.182-1.633.153-.472.34-.97 1.1-.836 2.776.065.816-.424 1.684-1.083 2.46-.593.698-1.308 1.305-1.832 1.71v-.452a.465.465 0 00-.465-.466h-4.84a.465.465 0 00-.466.466v13.203c0 .257.208.465.466.465h4.84a.466.466 0 00.465-.465v-.525a61.04 61.04 0 003.254 1.063c1.38.403 2.838.756 3.81.788h.002l3.845.027c1.24 0 2.255-.968 2.255-2.167 0-.49-.17-.94-.455-1.302.985-.23 1.725-1.082 1.725-2.103a2.1 2.1 0 00-.507-1.363c.87-.3 1.5-1.098 1.5-2.041 0-.686-.334-1.296-.851-1.693.516-.38.85-.967.85-1.628 0-1.154-1.02-2.079-2.256-2.079h-5.585c.252-.532.48-1.342.421-2.491-.126-2.59-1.699-3.944-2.624-4.336zM1.83 20.429V8.157h3.91v.877V19.7v.729H1.83z"/></svg><svg viewBox="0 0 20 15" id="list-btn" xmlns="http://www.w3.org/2000/svg"><path d="M.705 11.643h3.708V15H.705zM.705 5.822h3.708v3.357H.705zM.705 0h3.708v3.357H.705zM6.466 0h12.636v3.357H6.466zM6.466 11.643h12.636V15H6.466zM6.466 5.822h12.636v3.357H6.466z"/></svg><svg fill="none" viewBox="0 0 55 2" id="news-line" xmlns="http://www.w3.org/2000/svg"><path d="M0 1h55" stroke="#D79468" stroke-width="2"/></svg><svg fill="none" viewBox="0 0 10 15" id="pagination-arrow-left" xmlns="http://www.w3.org/2000/svg"><path d="M9 14.333L1 7.667 9 1" stroke="#9A9A9A" stroke-width="1.222" stroke-linejoin="round"/></svg><svg fill="none" viewBox="0 0 10 15" id="pagination-arrow-right" xmlns="http://www.w3.org/2000/svg"><path d="M1 1l8 6.667-8 6.666" stroke="#9A9A9A" stroke-width="1.222" stroke-linejoin="round"/></svg><svg viewBox="0 0 16 21" id="product-card-basket" xmlns="http://www.w3.org/2000/svg"><path d="M15.499 5.351h-3.064V4.144c0-2.289-1.93-4.144-4.31-4.144-2.381 0-4.311 1.855-4.311 4.144V5.35H.497A.489.489 0 000 5.83v12.784C0 19.931 1.112 21 2.483 21h11.034C14.888 21 16 19.931 16 18.613V5.829a.493.493 0 00-.501-.478zM4.802 4.14c0-1.761 1.485-3.19 3.317-3.19s3.318 1.429 3.318 3.19v1.208H4.802V4.139zm10.2 14.474c-.003.79-.668 1.43-1.49 1.432H2.478c-.822-.002-1.487-.642-1.49-1.432V6.306h2.82V8.25c0 .264.223.478.497.478a.487.487 0 00.497-.478V6.306h6.64V8.25c0 .264.222.478.496.478a.487.487 0 00.497-.478V6.306h2.567v12.307z"/></svg><svg viewBox="0 0 22 19" id="product-card-heart" xmlns="http://www.w3.org/2000/svg"><path d="M11 19c-.313 0-.615-.11-.85-.31A253.395 253.395 0 007.647 16.6l-.004-.003c-2.216-1.834-4.13-3.417-5.462-4.977C.693 9.878 0 8.224 0 6.418 0 4.663.62 3.044 1.745 1.86 2.885.66 4.447 0 6.145 0c1.27 0 2.434.39 3.458 1.158.516.388.984.863 1.397 1.417a6.96 6.96 0 011.398-1.417A5.641 5.641 0 0115.854 0c1.7 0 3.262.66 4.4 1.86C21.38 3.043 22 4.662 22 6.417c0 1.806-.693 3.46-2.182 5.203-1.332 1.56-3.245 3.143-5.461 4.976-.758.627-1.616 1.337-2.507 2.093-.235.2-.537.31-.85.31zM6.146 1.251c-1.335 0-2.561.517-3.453 1.456-.906.954-1.404 2.271-1.404 3.711 0 1.52.581 2.878 1.885 4.405 1.26 1.476 3.135 3.027 5.306 4.823l.004.003c.759.628 1.619 1.34 2.514 2.1.9-.762 1.762-1.475 2.523-2.103 2.17-1.796 4.045-3.347 5.305-4.823 1.304-1.527 1.885-2.886 1.885-4.405 0-1.44-.498-2.757-1.404-3.71-.891-.94-2.118-1.457-3.453-1.457-.978 0-1.875.302-2.668.897-.707.53-1.199 1.2-1.487 1.67a.812.812 0 01-.699.386.812.812 0 01-.699-.386c-.288-.47-.78-1.14-1.487-1.67a4.357 4.357 0 00-2.668-.897z"/></svg><svg viewBox="0 0 20 20" id="product-card-search" xmlns="http://www.w3.org/2000/svg"><path d="M19.81 18.936l-5.163-4.967c1.352-1.436 2.183-3.336 2.183-5.426C16.829 4.072 13.062.447 8.414.447 3.767.447 0 4.072 0 8.543s3.767 8.095 8.414 8.095c2.008 0 3.85-.679 5.297-1.808l5.184 4.987a.665.665 0 00.915 0 .607.607 0 000-.88zM8.414 15.393c-3.932 0-7.12-3.067-7.12-6.85 0-3.783 3.188-6.85 7.12-6.85 3.933 0 7.12 3.067 7.12 6.85 0 3.783-3.187 6.85-7.12 6.85z"/></svg><svg fill="none" viewBox="0 0 50 2" id="product-list-bottom-line" xmlns="http://www.w3.org/2000/svg"><path d="M0 1h50" stroke="#E5E5E5"/></svg><svg fill="none" viewBox="0 0 26 18" id="product-list-delivery-car" xmlns="http://www.w3.org/2000/svg"><path d="M.425 9.158h2.199v-3.71c0-.235.19-.425.425-.425h6.885V1.32c0-.235.19-.425.425-.425h15.216c.235 0 .425.19.425.424v13.936c0 .235-.19.425-.425.425h-3.552a2.245 2.245 0 01-2.221 1.944 2.245 2.245 0 01-2.22-1.944H7.613a2.246 2.246 0 01-2.222 1.944 2.246 2.246 0 01-2.223-1.944H.425A.425.425 0 010 15.256V9.583c0-.235.19-.425.425-.425zm19.377 7.617a1.395 1.395 0 000-2.788 1.395 1.395 0 000 2.788zm0-3.638c1.047 0 1.926.722 2.172 1.694h3.176V1.745H10.784V14.831h6.846a2.246 2.246 0 012.172-1.694zm-14.41 3.638c.77 0 1.395-.625 1.395-1.394a1.396 1.396 0 00-2.79 0c0 .768.626 1.394 1.395 1.394zM.85 14.83h2.368a2.247 2.247 0 012.174-1.694c1.048 0 1.927.722 2.174 1.694h2.367V5.873h-6.46v3.71c0 .234-.19.425-.425.425H.85v4.823z" fill="#000"/></svg><svg fill="none" viewBox="0 0 20 19" id="rating-star-normal" xmlns="http://www.w3.org/2000/svg"><path d="M10 1.618l1.77 5.446.112.346h6.09l-4.633 3.366-.294.213.112.346 1.77 5.446-4.633-3.366-.294-.213-.294.213-4.633 3.366 1.77-5.446.112-.346-.294-.213L2.028 7.41h6.09l.112-.346L10 1.618z" stroke="#D79468"/></svg><svg viewBox="0 0 33 29" id="shop-one-heart" xmlns="http://www.w3.org/2000/svg"><path d="M16.5 28.5a1.97 1.97 0 01-1.276-.465 378.519 378.519 0 00-3.752-3.133l-.006-.005c-3.325-2.75-6.195-5.125-8.193-7.465C1.04 14.816 0 12.336 0 9.627c0-2.632.93-5.06 2.618-6.838C4.326.991 6.67 0 9.218 0c1.906 0 3.65.585 5.186 1.737A10.442 10.442 0 0116.5 3.862a10.44 10.44 0 012.096-2.125C20.133.585 21.877 0 23.781 0c2.549 0 4.893.99 6.601 2.79C32.071 4.566 33 6.994 33 9.626c0 2.71-1.04 5.19-3.273 7.805-1.997 2.34-4.868 4.714-8.192 7.464-1.136.94-2.423 2.005-3.76 3.14-.352.299-.805.464-1.275.464zM9.219 1.877c-2.003 0-3.842.775-5.18 2.184C2.68 5.49 1.933 7.468 1.933 9.627c0 2.279.872 4.316 2.828 6.607 1.89 2.215 4.703 4.541 7.959 7.235l.006.005a380.99 380.99 0 013.771 3.149 447.043 447.043 0 013.784-3.155c3.256-2.693 6.068-5.019 7.958-7.233 1.956-2.291 2.828-4.33 2.828-6.608 0-2.16-.748-4.136-2.106-5.566-1.338-1.409-3.177-2.184-5.18-2.184a6.535 6.535 0 00-4.002 1.345c-1.06.795-1.798 1.801-2.23 2.505a1.218 1.218 0 01-1.049.578c-.434 0-.826-.216-1.048-.578-.433-.704-1.17-1.71-2.23-2.505a6.535 6.535 0 00-4.003-1.345z"/></svg><svg fill="none" viewBox="0 0 112 2" id="title-line" xmlns="http://www.w3.org/2000/svg"><path d="M0 1h111.5" stroke="#D79468" stroke-width="2"/></svg></svg>