<svg width="103" height="68" viewBox="0 0 103 68" fill="none" xmlns="http://www.w3.org/2000/svg">
<path d="M42.0504 28.6255C33.6606 28.6255 26.834 35.4521 26.834 43.8419C26.834 52.2317 33.6595 59.0573 42.0504 59.0573C50.4413 59.0573 57.2668 52.2317 57.2668 43.8419C57.2668 35.4521 50.4402 28.6255 42.0504 28.6255ZM42.0504 55.7858C35.4649 55.7858 30.1066 50.4285 30.1066 43.843C30.1066 37.2575 35.4649 31.8992 42.0504 31.8992C48.637 31.8992 53.9943 37.2575 53.9943 43.843C53.9943 50.4285 48.6359 55.7858 42.0504 55.7858Z" fill="#D79468"/>
<path d="M10.022 28.6265C9.11771 28.6265 8.38574 29.3584 8.38574 30.2628V57.4208C8.38574 58.3241 9.11771 59.0571 10.022 59.0571C10.9264 59.0571 11.6583 58.3241 11.6583 57.4208V30.2628C11.6583 29.3584 10.9264 28.6265 10.022 28.6265Z" fill="#D79468"/>
<path d="M73.5611 28.6265C72.6579 28.6265 71.9248 29.3584 71.9248 30.2628V57.4208C71.9248 58.3241 72.6579 59.0571 73.5611 59.0571C74.4643 59.0571 75.1974 58.3241 75.1974 57.4208V30.2628C75.1974 29.3584 74.4654 28.6265 73.5611 28.6265Z" fill="#D79468"/>
<path d="M100.439 0H20.35C19.4457 0 18.7137 0.731968 18.7137 1.63629V9.7294H11.3831C10.4788 9.7294 9.74685 10.4614 9.74685 11.3657V20.3631H1.63629C0.731968 20.3631 0 21.0951 0 21.9994V65.6852C0 66.5884 0.731968 67.3214 1.63629 67.3214H81.7263C82.6295 67.3214 83.3626 66.5884 83.3626 65.6852V56.6877H91.4742C92.3774 56.6877 93.1105 55.9547 93.1105 55.0514V46.9583H100.44C101.343 46.9583 102.076 46.2253 102.076 45.322V1.63629C102.075 0.731968 101.342 0 100.439 0ZM3.27259 64.0489V23.6357H80.09V55.0405C80.09 55.0438 80.0889 55.0471 80.0889 55.0514C80.0889 55.0558 80.09 55.058 80.09 55.0623V64.0489H3.27259ZM89.8368 53.4151H83.3615V21.9994C83.3615 21.0951 82.6284 20.3631 81.7252 20.3631H13.0194V13.002H89.8368V53.4151ZM98.8026 43.6857H93.1094V11.3657C93.1094 10.4614 92.3764 9.7294 91.4731 9.7294H21.9863V3.27258H98.8026V43.6857Z" fill="#D79468"/>
</svg>
