<svg width="93" height="88" viewBox="0 0 93 88" fill="none" xmlns="http://www.w3.org/2000/svg">
<path d="M35.4164 41.0338C34.2662 41.7899 32.9628 42.6481 31.5195 43.7822C31.3485 43.9061 27.3202 46.853 25.671 49.6034C24.0141 52.368 23.4754 56.9019 23.4527 57.0938C23.4064 57.4954 23.534 57.8981 23.8033 58.1996C24.0727 58.5011 24.4574 58.674 24.8619 58.674H42.5457C43.3292 58.674 43.9634 58.0389 43.9634 57.2563C43.9634 56.4737 43.3292 55.8386 42.5457 55.8386H26.5254C26.7938 54.4388 27.2928 52.4134 28.1028 51.0618C29.2247 49.1913 32.1528 46.8285 33.2293 46.044C34.6206 44.9514 35.871 44.1282 36.975 43.4023C39.8652 41.5007 42.1478 39.9988 42.1478 36.1492C42.1478 31.087 38.0288 26.968 32.9666 26.968C27.9025 26.968 23.7816 31.086 23.7816 36.1492C23.7816 36.9327 24.4158 37.5669 25.1993 37.5669C25.9829 37.5669 26.6171 36.9327 26.6171 36.1492C26.6171 32.6503 29.4657 29.8035 32.9666 29.8035C36.4655 29.8035 39.3123 32.6503 39.3123 36.1492C39.3123 38.3646 38.3757 39.0858 35.4164 41.0338Z" fill="#D79468"/>
<path d="M59.8702 58.8385C60.6527 58.8385 61.2879 58.2034 61.2879 57.4208V50.7367H65.4409C66.2235 50.7367 66.8586 50.1015 66.8586 49.319C66.8586 48.5364 66.2235 47.9012 65.4409 47.9012H61.2879V28.5512C61.2879 27.9226 60.8739 27.3697 60.2718 27.192C59.6698 27.0143 59.0205 27.2544 58.6793 27.7818L45.2572 48.5487C44.9755 48.9853 44.9547 49.5401 45.2024 49.9957C45.45 50.4513 45.9282 50.7357 46.4471 50.7357H58.4524V57.4199C58.4524 58.2034 59.0876 58.8385 59.8702 58.8385ZM49.052 47.9012L58.4524 33.3563V47.9012H49.052Z" fill="#D79468"/>
<path d="M92.0256 37.514C91.4273 37.0093 90.5313 37.0858 90.0285 37.6841L87.538 40.6386C85.8953 17.956 66.928 0 43.8333 0C19.6639 0 0 19.6629 0 43.8314C0 68.0008 19.6639 87.6627 43.8333 87.6627C59.3158 87.6627 73.3494 79.7424 81.3718 66.4762C81.7773 65.8061 81.5627 64.9347 80.8926 64.5292C80.2235 64.1228 79.3511 64.3383 78.9456 65.0084C71.4411 77.4183 58.3149 84.8273 43.8333 84.8273C21.2271 84.8273 2.83545 66.4365 2.83545 43.8314C2.83545 21.2262 21.2271 2.83545 43.8333 2.83545C65.5453 2.83545 83.3595 19.8028 84.7356 41.1727L81.5599 38.5206C80.9569 38.0177 80.0647 38.1 79.5628 38.7001C79.0609 39.3013 79.1413 40.1954 79.7414 40.6973L85.3811 45.4069C85.6467 45.6281 85.969 45.7368 86.2894 45.7368C86.693 45.7368 87.0947 45.5648 87.3735 45.233L92.1957 39.513C92.7004 38.9137 92.6248 38.0187 92.0256 37.514Z" fill="#D79468"/>
</svg>
