<svg width="22" height="19" viewBox="0 0 22 19" xmlns="http://www.w3.org/2000/svg">
<path d="M21.4006 2.19966C20.6199 2.5727 19.788 2.81997 18.9207 2.94003C19.8129 2.35974 20.4939 1.44786 20.8141 0.348744C19.9822 0.889012 19.0637 1.27063 18.0848 1.48359C17.2949 0.567424 16.1691 0 14.9409 0C12.5581 0 10.6397 2.10676 10.6397 4.68947C10.6397 5.06108 10.6686 5.4184 10.7394 5.75857C7.16119 5.56847 3.99498 3.70041 1.86798 0.854709C1.49665 1.55649 1.27883 2.35974 1.27883 3.22446C1.27883 4.84812 2.04644 6.2874 3.19063 7.12067C2.49913 7.10638 1.82075 6.8877 1.24603 6.54324C1.24603 6.55754 1.24603 6.57612 1.24603 6.5947C1.24603 8.87297 2.73794 10.7653 4.69435 11.2013C4.34401 11.3056 3.96217 11.3556 3.56591 11.3556C3.29035 11.3556 3.01218 11.3385 2.75106 11.2756C3.30872 13.1322 4.89118 14.4972 6.7728 14.5415C5.30844 15.7893 3.44912 16.5411 1.43629 16.5411C1.08332 16.5411 0.744784 16.5239 0.40625 16.4767C2.3128 17.816 4.57232 18.5806 7.00898 18.5806C14.9291 18.5806 19.2592 11.4342 19.2592 5.23974C19.2592 5.03249 19.2526 4.8324 19.2435 4.63373C20.0977 3.9734 20.8154 3.1487 21.4006 2.19966Z"/>
</svg>
