<svg width="31" height="19" viewBox="0 0 31 19" xmlns="http://www.w3.org/2000/svg">
<path d="M30.633 16.2668C30.5499 16.1278 30.036 15.012 27.5632 12.7186C24.9744 10.3171 25.3221 10.7071 28.4403 6.55467C30.3393 4.02576 31.0986 2.48139 30.861 1.82117C30.6349 1.19184 29.2382 1.35786 29.2382 1.35786L24.5938 1.38488C24.5938 1.38488 24.2499 1.33855 23.993 1.49106C23.7438 1.64163 23.5834 1.98912 23.5834 1.98912C23.5834 1.98912 22.8474 3.94661 21.8659 5.61067C19.7968 9.12218 18.9681 9.30751 18.63 9.08937C17.8437 8.58165 18.0407 7.04693 18.0407 5.95815C18.0407 2.55474 18.5566 1.13585 17.0342 0.769065C16.528 0.647445 16.1571 0.566366 14.8646 0.552853C13.2071 0.535478 11.8025 0.558644 11.0085 0.946667C10.4792 1.20535 10.0715 1.78256 10.3208 1.81538C10.6279 1.85592 11.3234 2.00263 11.6924 2.50455C12.1696 3.15126 12.1522 4.60683 12.1522 4.60683C12.1522 4.60683 12.4266 8.61254 11.5128 9.1106C10.8849 9.45229 10.0252 8.7554 8.18019 5.5682C7.23548 3.93696 6.52067 2.13197 6.52067 2.13197C6.52067 2.13197 6.3835 1.79607 6.13815 1.61654C5.84063 1.3984 5.42334 1.3289 5.42334 1.3289L1.00696 1.35593C1.00696 1.35593 0.344314 1.37523 0.100891 1.66287C-0.115484 1.91962 0.083504 2.44857 0.083504 2.44857C0.083504 2.44857 3.54165 10.5314 7.45572 14.6066C11.0472 18.3421 15.1235 18.0969 15.1235 18.0969H16.9704C16.9704 18.0969 17.5288 18.0351 17.8128 17.7282C18.0755 17.4463 18.0658 16.9174 18.0658 16.9174C18.0658 16.9174 18.0291 14.4406 19.1806 14.0758C20.3146 13.7167 21.7713 16.4695 23.3149 17.5294C24.4818 18.3305 25.3685 18.1548 25.3685 18.1548L29.497 18.0969C29.497 18.0969 31.6569 17.9637 30.633 16.2668Z"/>
</svg>
