<svg width="26" height="25" viewBox="0 0 26 25" xmlns="http://www.w3.org/2000/svg">
<path d="M17.7436 0H8.42108C4.13118 0 0.652344 3.47625 0.652344 7.76294V17.0785C0.652344 21.3652 4.13118 24.8414 8.42108 24.8414H17.7436C22.0335 24.8414 25.5123 21.3652 25.5123 17.0785V7.76294C25.5123 3.47625 22.0335 0 17.7436 0ZM23.1817 17.0785C23.1817 20.075 20.7423 22.5125 17.7436 22.5125H8.42108C5.42235 22.5125 2.98296 20.075 2.98296 17.0785V7.76294C2.98296 4.76645 5.42235 2.32888 8.42108 2.32888H17.7436C20.7423 2.32888 23.1817 4.76645 23.1817 7.76294V17.0785Z"/>
<path d="M13.0822 6.21069C9.64995 6.21069 6.86719 8.99134 6.86719 12.421C6.86719 15.8506 9.64995 18.6312 13.0822 18.6312C16.5144 18.6312 19.2972 15.8506 19.2972 12.421C19.2972 8.99134 16.5144 6.21069 13.0822 6.21069ZM13.0822 16.3024C10.9411 16.3024 9.19781 14.5604 9.19781 12.421C9.19781 10.28 10.9411 8.53954 13.0822 8.53954C15.2232 8.53954 16.9665 10.28 16.9665 12.421C16.9665 14.5604 15.2232 16.3024 13.0822 16.3024Z"/>
<path d="M19.7647 6.57353C20.222 6.57353 20.5928 6.20276 20.5928 5.74538C20.5928 5.28801 20.222 4.91724 19.7647 4.91724C19.3073 4.91724 18.9365 5.28801 18.9365 5.74538C18.9365 6.20276 19.3073 6.57353 19.7647 6.57353Z"/>
</svg>
