<svg width="29" height="29" viewBox="0 0 29 29" fill="none" xmlns="http://www.w3.org/2000/svg">
<path d="M28.7249 27.4223L21.2375 20.0546C23.1982 17.9244 24.4029 15.1071 24.4029 12.007C24.402 5.37529 18.9396 0 12.201 0C5.46234 0 0 5.37529 0 12.007C0 18.6387 5.46234 24.014 12.201 24.014C15.1126 24.014 17.783 23.0069 19.8806 21.3327L27.3969 28.7294C27.7632 29.0902 28.3578 29.0902 28.724 28.7294C29.0911 28.3687 29.0911 27.7831 28.7249 27.4223ZM12.201 22.1666C6.49936 22.1666 1.87729 17.618 1.87729 12.007C1.87729 6.39596 6.49936 1.84735 12.201 1.84735C17.9027 1.84735 22.5247 6.39596 22.5247 12.007C22.5247 17.618 17.9027 22.1666 12.201 22.1666Z" fill="white"/>
</svg> 
