<svg width="26" height="23" viewBox="0 0 26 23" fill="none" xmlns="http://www.w3.org/2000/svg">
<path d="M25.1241 2.92146C24.2092 3.35862 23.2343 3.64838 22.2179 3.78907C23.2636 3.10905 24.0616 2.04045 24.4368 0.752432C23.4619 1.38555 22.3855 1.83276 21.2384 2.08232C20.3128 1.0087 18.9935 0.34375 17.5542 0.34375C14.7618 0.34375 12.5137 2.81259 12.5137 5.83919C12.5137 6.27467 12.5476 6.6934 12.6306 7.09203C8.43739 6.86927 4.727 4.68014 2.23444 1.34536C1.79928 2.16775 1.54403 3.10905 1.54403 4.12239C1.54403 6.0251 2.44357 7.71175 3.78441 8.68824C2.97406 8.67149 2.17909 8.41522 1.50559 8.01157C1.50559 8.02832 1.50559 8.05009 1.50559 8.07186C1.50559 10.7417 3.25392 12.9593 5.54657 13.4702C5.13602 13.5924 4.68856 13.651 4.22418 13.651C3.90127 13.651 3.57529 13.6309 3.26929 13.5572C3.9228 15.733 5.77722 17.3325 7.98224 17.3845C6.2662 18.8467 4.08733 19.7277 1.72855 19.7277C1.31492 19.7277 0.918202 19.7076 0.521484 19.6523C2.75571 21.2217 5.40357 22.1178 8.25902 22.1178C17.5404 22.1178 22.6147 13.7432 22.6147 6.48403C22.6147 6.24117 22.607 6.00668 22.5962 5.77386C23.5972 5.00005 24.4383 4.03361 25.1241 2.92146Z" fill="#9A9A9A"/>
</svg>
