<svg width="23" height="23" viewBox="0 0 23 23" fill="none" xmlns="http://www.w3.org/2000/svg">
<path d="M5.03098 8.63903V8.63853H3.15731C2.42004 8.63853 1.83131 9.19989 1.83153 9.87583V9.87586C1.83153 10.5512 2.42015 11.1115 3.15756 11.1115H4.72029C4.97724 11.1115 5.18581 11.3197 5.18581 11.577C5.18581 11.8343 4.97724 12.0425 4.72029 12.0425H3.15756C2.41397 12.0425 1.83153 12.5721 1.83153 13.1965C1.83153 13.8171 2.41346 14.3442 3.15756 14.3442L9.61707 14.3442C9.81234 14.3442 9.98639 14.4659 10.054 14.6488L10.0541 14.6491C10.1209 14.8319 10.0674 15.0367 9.91966 15.1634C9.89376 15.1869 9.1573 15.875 9.25078 17.7205L9.25079 17.7207C9.35482 19.8666 10.605 20.9467 11.3087 21.2456C11.4134 21.2896 11.7469 21.4008 12.0332 21.1946C12.2064 21.0697 12.3413 20.8427 12.4219 20.5104C12.5023 20.1791 12.5261 19.7535 12.4859 19.2477L12.4859 19.2477C12.3867 17.9981 13.1759 16.7714 14.0648 15.8021C14.9272 14.8618 15.9038 14.1418 16.3287 13.8466L16.3287 3.76789C15.767 3.56446 14.4983 3.11591 13.1312 2.70414C11.7044 2.27439 10.1838 1.88897 9.24565 1.85784L5.41503 1.83129C5.41489 1.83129 5.41475 1.83129 5.41462 1.83129C4.68186 1.83149 4.09436 2.39163 4.09436 3.06691C4.09436 3.7429 4.6795 4.30301 5.41259 4.30569C5.4127 4.30569 5.41282 4.30569 5.41293 4.30569M5.03098 8.63903L5.41259 4.40569L5.41293 4.30569M5.03098 8.63903L5.03841 8.63829M5.03098 8.63903L5.03342 8.53829M5.41293 4.30569L5.41746 4.30569H5.42741L5.42738 4.30593M5.41293 4.30569L5.42738 4.30593M5.42738 4.30593H5.4199V4.3812V4.40594L5.42979 4.30643L5.42736 4.30618L5.42738 4.30593ZM5.42738 4.30593H6.76112C7.01812 4.30593 7.22664 4.51446 7.22664 4.77146C7.22664 5.02846 7.01812 5.23698 6.76112 5.23698H5.41746H5.41249L5.4125 5.23686L5.41012 5.23674M5.42738 4.30593L4.15154 5.13674C3.36469 5.13674 2.72453 5.73571 2.72453 6.47187C2.72453 7.20803 3.36469 7.80724 4.15154 7.80724H5.41746C5.61923 7.80724 5.78298 7.971 5.78298 8.17277C5.78298 8.37454 5.61923 8.53829 5.41746 8.53829H5.03342M5.41012 5.23674H5.4125H5.41259V5.23502V5.13674L5.40762 5.23661L5.41012 5.23674ZM5.41012 5.23674H4.15154C3.41355 5.23674 2.82454 5.7971 2.82454 6.47187C2.82454 7.14666 3.41357 7.70724 4.15154 7.70724H5.41746C5.67446 7.70724 5.88298 7.91577 5.88298 8.17277C5.88298 8.42976 5.67446 8.63829 5.41746 8.63829H5.03841M5.03841 8.63829L5.04095 8.63804L5.04338 8.63779L5.03342 8.53829M5.03841 8.63829H5.03342V8.56287V8.53829M10.9453 22.103L10.9453 22.103C11.502 22.3392 12.1133 22.2848 12.5776 21.95C13.0495 21.6096 13.5471 20.8494 13.4139 19.1741C13.3492 18.3576 13.8381 17.4896 14.4974 16.7132C15.0899 16.0153 15.8053 15.4085 16.3287 15.0043V15.4559C16.3287 15.7132 16.537 15.9214 16.7942 15.9214H21.6345C21.8917 15.9214 22.1 15.7132 22.1 15.4559L22.1 2.25277C22.1 1.99581 21.8918 1.78724 21.6345 1.78724H16.7942C16.5369 1.78724 16.3287 1.99581 16.3287 2.25277V2.77768C15.6112 2.52158 14.3728 2.09447 13.0747 1.71499C11.6951 1.31167 10.2368 0.958632 9.2653 0.926855L9.2653 0.926823L9.26272 0.926804L5.41816 0.899998H5.41746C4.17824 0.899998 3.16307 1.8681 3.16307 3.06666C3.16307 3.55627 3.33357 4.00672 3.61794 4.36919C2.63254 4.59925 1.89325 5.45041 1.89325 6.47163C1.89325 6.98916 2.08471 7.46311 2.40025 7.83499C1.52942 8.13389 0.9 8.93274 0.9 9.87586V9.87589C0.90024 10.5619 1.23432 11.1721 1.75128 11.5684C1.23541 11.9491 0.900242 12.5357 0.900242 13.1968C0.900242 14.3511 1.92098 15.2754 3.15731 15.2754L8.74249 15.2754C8.48959 15.8077 8.26285 16.6178 8.32096 17.767C8.44656 20.3571 10.0199 21.7103 10.9453 22.103ZM21.169 2.71852L21.169 14.9906H17.2598V14.1133C17.2603 14.1008 17.26 14.089 17.2598 14.0805L17.2598 3.45033C17.2598 3.44968 17.2598 3.44896 17.2598 3.44817C17.26 3.44105 17.2604 3.4286 17.2598 3.41596V2.71829L21.169 2.71852Z" fill="#9A9A9A" stroke="#9A9A9A" stroke-width="0.2"/>
</svg>
