<svg width="27" height="33" viewBox="0 0 27 33" xmlns="http://www.w3.org/2000/svg">
<path d="M13.0204 14.1984C16.9412 14.1984 20.1197 11.0198 20.1197 7.09905C20.1197 3.17827 16.9412 0 13.0204 0C9.0996 0 5.92133 3.17856 5.92133 7.09934C5.92573 11.0181 9.10165 14.194 13.0204 14.1984ZM13.0204 1.50381C16.1108 1.50381 18.6159 4.00889 18.6159 7.09934C18.6159 10.1895 16.1108 12.6946 13.0204 12.6946C9.93022 12.6946 7.42514 10.1895 7.42514 7.09934C7.42866 4.01036 9.93169 1.50734 13.0204 1.50381Z"/>
<path d="M13.2042 15.7214C5.91039 15.7185 -0.00293604 21.6321 1.09367e-06 28.9256V31.9558C1.09367e-06 32.3712 0.336596 32.7078 0.751907 32.7078H25.6564C26.0717 32.7078 26.4083 32.3712 26.4083 31.9558V28.9256C26.4116 21.6321 20.498 15.7185 13.2042 15.7214ZM24.9045 31.2039H1.50381V28.9256C1.49324 24.7384 3.72105 20.8649 7.34548 18.7681C10.9699 16.6716 15.4384 16.6716 19.0632 18.7681C22.6876 20.8649 24.9154 24.7384 24.9045 28.9256V31.2039Z"/>
</svg> 
