<svg width="16" height="21" viewBox="0 0 16 21" xmlns="http://www.w3.org/2000/svg">
<path d="M15.4987 5.3515H12.4347V4.14364C12.4347 1.85529 10.5047 0 8.12432 0C5.74375 0 3.81383 1.85529 3.81383 4.14364V5.3515H0.496671C0.222833 5.35225 0.000777497 5.56542 0 5.82897V18.613C0.000622005 19.9312 1.11199 20.9996 2.48305 21H13.5171C14.8883 20.9996 15.9997 19.9312 16 18.613V5.82897C15.9969 5.56452 15.7734 5.35195 15.4987 5.3515ZM4.80204 4.13886C4.80204 2.37775 6.28739 0.949843 8.11919 0.949843C9.95146 0.949843 11.4365 2.37775 11.4365 4.13886V5.34672H4.80204V4.13886ZM15.002 18.613C14.9995 19.4032 14.334 20.043 13.5123 20.0452H2.47822C1.65624 20.043 0.990699 19.4032 0.988367 18.613V6.30628H3.80885V8.24917C3.80885 8.51286 4.03137 8.72663 4.30537 8.72663C4.57967 8.72663 4.80204 8.51286 4.80204 8.24917V6.30628H11.4415V8.24917C11.4415 8.51286 11.6638 8.72663 11.9381 8.72663C12.2121 8.72663 12.4347 8.51286 12.4347 8.24917V6.30628H15.002V18.613Z"/>
</svg>
