<svg width="26" height="18" viewBox="0 0 26 18" fill="none" xmlns="http://www.w3.org/2000/svg">
<path d="M0.42527 9.15759H2.6236V5.44771C2.6236 5.21283 2.81399 5.02272 3.04859 5.02272H9.9337V1.3205C9.9337 1.08562 10.1241 0.895508 10.3587 0.895508H25.575C25.8099 0.895508 26 1.08562 26 1.3205V15.2559C26 15.4905 25.8099 15.6809 25.575 15.6809H22.0227C21.8753 16.7765 20.937 17.6248 19.802 17.6248C18.6669 17.6248 17.7286 16.7765 17.5812 15.6809H10.3587H7.61439C7.46706 16.7765 6.52812 17.6248 5.39198 17.6248C4.25584 17.6248 3.3169 16.7765 3.16929 15.6809H0.424988C0.190393 15.6809 -1.90735e-06 15.4905 -1.90735e-06 15.2559V9.58257C0.000282288 9.3477 0.190676 9.15759 0.42527 9.15759ZM19.802 16.7748C20.5701 16.7748 21.1951 16.1495 21.1951 15.3808C21.1951 14.6122 20.5701 13.9869 19.802 13.9869C19.0339 13.9869 18.4088 14.6122 18.4088 15.3808C18.4088 16.1495 19.0336 16.7748 19.802 16.7748ZM19.802 13.1369C20.8488 13.1369 21.7277 13.8591 21.9739 14.8309H25.15V1.74549H10.7837V5.44771V9.58257V14.8306H17.6297C17.8759 13.8591 18.7551 13.1369 19.802 13.1369ZM5.39198 16.7748C6.16121 16.7748 6.78679 16.1495 6.78679 15.3808C6.78679 14.6122 6.16121 13.9869 5.39198 13.9869C4.62275 13.9869 3.99688 14.6122 3.99688 15.3808C3.99688 16.1495 4.62304 16.7748 5.39198 16.7748ZM0.850258 14.8306H3.21802C3.46451 13.8588 4.34424 13.1366 5.39198 13.1366C6.43972 13.1366 7.31945 13.8588 7.56566 14.8306H9.93342V9.58257V5.8727H3.4733V9.58257C3.4733 9.81717 3.2829 10.0076 3.04831 10.0076H0.849977V14.8306H0.850258Z" fill="black"/>
</svg>
