<svg width="33" height="29" viewBox="0 0 33 29" xmlns="http://www.w3.org/2000/svg">
<path d="M16.5 28.5C16.0302 28.5 15.5773 28.3348 15.2243 28.0347C13.8912 26.9031 12.6059 25.8397 11.4719 24.9017L11.4661 24.8968C8.14149 22.1466 5.27055 19.7715 3.27301 17.4318C1.04006 14.8163 0 12.3363 0 9.62717C0 6.99498 0.929787 4.56662 2.6179 2.7891C4.32616 0.990554 6.67014 0 9.21881 0C11.1237 0 12.8682 0.584605 14.4038 1.73744C15.1787 2.31936 15.8811 3.03154 16.5 3.86226C17.1191 3.03154 17.8213 2.31936 18.5965 1.73744C20.132 0.584605 21.8765 0 23.7814 0C26.3299 0 28.6741 0.990554 30.3823 2.7891C32.0705 4.56662 33 6.99498 33 9.62717C33 12.3363 31.9602 14.8163 29.7272 17.4316C27.7297 19.7715 24.859 22.1463 21.5349 24.8963C20.3989 25.8358 19.1116 26.9009 17.7755 28.0352C17.4227 28.3348 16.9696 28.5 16.5 28.5ZM9.21881 1.87651C7.21648 1.87651 5.37705 2.65223 4.03889 4.06095C2.68085 5.49094 1.93284 7.46765 1.93284 9.62717C1.93284 11.9057 2.80522 13.9435 4.76122 16.2345C6.65176 18.449 9.46378 20.7752 12.7197 23.4688L12.7257 23.4737C13.864 24.4153 15.1543 25.4829 16.4972 26.6228C17.8482 25.4807 19.1406 24.4114 20.2811 23.4683C23.5367 20.7748 26.3485 18.449 28.239 16.2345C30.1948 13.9435 31.0672 11.9057 31.0672 9.62717C31.0672 7.46765 30.3192 5.49094 28.9611 4.06095C27.6232 2.65223 25.7835 1.87651 23.7814 1.87651C22.3146 1.87651 20.9679 2.32913 19.7788 3.22168C18.7191 4.01745 17.9809 5.0234 17.5481 5.72728C17.3256 6.08923 16.9338 6.30528 16.5 6.30528C16.0662 6.30528 15.6744 6.08923 15.4519 5.72728C15.0193 5.0234 14.2812 4.01745 13.2212 3.22168C12.0321 2.32913 10.6854 1.87651 9.21881 1.87651Z"/>
</svg>
